<svg xmlns="http://www.w3.org/2000/svg" xmlns:xlink="http://www.w3.org/1999/xlink" width="385" zoomAndPan="magnify" viewBox="0 0 288.75 288.749989" height="385" preserveAspectRatio="xMidYMid meet" version="1.0"><defs><clipPath id="75640bdf21"><path d="M 0 0 L 287.902344 0 L 287.902344 287.902344 L 0 287.902344 Z M 0 0 " clip-rule="nonzero"/></clipPath><clipPath id="7346eb54bc"><path d="M 143.949219 0 C 64.449219 0 0 64.449219 0 143.949219 C 0 223.453125 64.449219 287.902344 143.949219 287.902344 C 223.453125 287.902344 287.902344 223.453125 287.902344 143.949219 C 287.902344 64.449219 223.453125 0 143.949219 0 Z M 143.949219 0 " clip-rule="nonzero"/></clipPath><clipPath id="2c11d541b6"><path d="M 144.394531 120.886719 L 193.746094 120.886719 L 193.746094 170.242188 L 144.394531 170.242188 Z M 144.394531 120.886719 " clip-rule="nonzero"/></clipPath><clipPath id="76207d97ec"><path d="M 169.070312 120.886719 C 155.441406 120.886719 144.394531 131.9375 144.394531 145.566406 C 144.394531 159.195312 155.441406 170.242188 169.070312 170.242188 C 182.699219 170.242188 193.746094 159.195312 193.746094 145.566406 C 193.746094 131.9375 182.699219 120.886719 169.070312 120.886719 Z M 169.070312 120.886719 " clip-rule="nonzero"/></clipPath><clipPath id="941547135f"><path d="M 114.90625 133.621094 L 173.886719 133.621094 L 173.886719 157.511719 L 114.90625 157.511719 Z M 114.90625 133.621094 " clip-rule="nonzero"/></clipPath><clipPath id="1da3482279"><path d="M 159.136719 133.621094 C 167.277344 133.621094 173.878906 138.96875 173.878906 145.566406 C 173.878906 152.164062 167.277344 157.511719 159.136719 157.511719 L 129.648438 157.511719 C 121.507812 157.511719 114.90625 152.164062 114.90625 145.566406 C 114.90625 138.96875 121.507812 133.621094 129.648438 133.621094 Z M 159.136719 133.621094 " clip-rule="nonzero"/></clipPath></defs><g clip-path="url(#75640bdf21)"><g clip-path="url(#7346eb54bc)"><path fill="#dd622d" d="M 0 0 L 287.902344 0 L 287.902344 287.902344 L 0 287.902344 Z M 0 0 " fill-opacity="1" fill-rule="nonzero"/></g></g><path stroke-linecap="round" transform="matrix(0.749351, 0, 0, 0.749351, 56.82514, 63.472678)" fill="none" stroke-linejoin="miter" d="M 16.002199 15.998187 L 216.535061 15.998187 " stroke="#0f1819" stroke-width="32" stroke-opacity="1" stroke-miterlimit="4"/><path stroke-linecap="round" transform="matrix(0.749351, 0, 0, 0.749351, 56.82514, 200.449735)" fill="none" stroke-linejoin="miter" d="M 16.002199 15.997527 L 216.535061 15.997527 " stroke="#0f1819" stroke-width="32" stroke-opacity="1" stroke-miterlimit="4"/><path stroke-linecap="round" transform="matrix(0.00000000130786, 0.749351, -0.749351, 0.00000000130786, 231.227247, 66.853942)" fill="none" stroke-linejoin="miter" d="M 16.000253 15.999129 L 194.0814 15.999129 " stroke="#0f1819" stroke-width="32" stroke-opacity="1" stroke-miterlimit="4"/><path stroke-linecap="round" transform="matrix(0, 0.749351, -0.749351, 0, 80.647402, 66.858155)" fill="none" stroke-linejoin="miter" d="M 15.999844 16.002046 L 41.219579 16.002046 " stroke="#0f1819" stroke-width="32" stroke-opacity="1" stroke-miterlimit="4"/><path stroke-linecap="round" transform="matrix(0, 0.749351, -0.749351, 0, 80.647402, 181.406775)" fill="none" stroke-linejoin="miter" d="M 15.997515 16.002046 L 41.21725 16.002046 " stroke="#0f1819" stroke-width="32" stroke-opacity="1" stroke-miterlimit="4"/><path stroke-linecap="butt" transform="matrix(0, 0.749351, -0.749351, 0, 80.649927, 133.622307)" fill="none" stroke-linejoin="miter" d="M -0.00161879 16.000203 L 31.88013 16.000203 " stroke="#0f1819" stroke-width="32" stroke-opacity="1" stroke-miterlimit="4"/><path stroke-linecap="butt" transform="matrix(0, 0.749351, -0.749351, 0, 80.649927, 85.84034)" fill="none" stroke-linejoin="miter" d="M -0.00066165 16.000203 L 31.881087 16.000203 " stroke="#0f1819" stroke-width="32" stroke-opacity="1" stroke-miterlimit="4"/><path stroke-linecap="butt" transform="matrix(0, 0.749351, -0.749351, 0, 80.649927, 181.404257)" fill="none" stroke-linejoin="miter" d="M -0.00255353 16.000203 L 31.884408 16.000203 " stroke="#0f1819" stroke-width="32" stroke-opacity="1" stroke-miterlimit="4"/><g clip-path="url(#2c11d541b6)"><g clip-path="url(#76207d97ec)"><path fill="#0f1819" d="M 144.394531 120.886719 L 193.746094 120.886719 L 193.746094 170.242188 L 144.394531 170.242188 Z M 144.394531 120.886719 " fill-opacity="1" fill-rule="nonzero"/></g></g><g clip-path="url(#941547135f)"><g clip-path="url(#1da3482279)"><path fill="#0f1819" d="M 114.90625 133.621094 L 173.886719 133.621094 L 173.886719 157.511719 L 114.90625 157.511719 Z M 114.90625 133.621094 " fill-opacity="1" fill-rule="nonzero"/></g></g></svg>